<?xml version="1.0" standalone="no"?>
<!DOCTYPE svg PUBLIC "-//W3C//DTD SVG 20010904//EN"
 "http://www.w3.org/TR/2001/REC-SVG-20010904/DTD/svg10.dtd">
<svg version="1.0" xmlns="http://www.w3.org/2000/svg"
 width="240.000000pt" height="240.000000pt" viewBox="0 0 240.000000 240.000000"
 preserveAspectRatio="xMidYMid meet">
<metadata>
Created by potrace 1.15, written by Peter Selinger 2001-2017
</metadata>
<g transform="translate(0.000000,240.000000) scale(0.100000,-0.100000)"
fill="#000000" stroke="none">
<path d="M373 2385 c-172 -47 -313 -189 -358 -360 -22 -87 -23 -1561 0 -1648
45 -175 187 -316 360 -362 88 -23 1562 -23 1650 0 129 34 261 138 319 253 57
112 56 100 56 932 0 842 1 824 -61 941 -38 71 -136 167 -207 203 -112 57 -99
56 -937 55 -630 0 -780 -3 -822 -14z m319 -315 c112 -31 162 -156 103 -256
-28 -48 -91 -84 -145 -84 -54 0 -117 36 -145 84 -57 97 -14 214 92 251 47 17
49 17 95 5z m108 -1020 l0 -550 -150 0 -150 0 0 550 0 550 150 0 150 0 0 -550z
m500 464 l0 -87 41 46 c72 82 221 137 333 121 151 -20 245 -98 298 -245 22
-62 23 -77 26 -456 l3 -393 -150 0 -151 0 0 308 c0 318 -4 356 -43 412 -90
133 -280 100 -341 -58 -14 -36 -16 -89 -16 -352 l0 -310 -150 0 -150 0 0 550
0 550 150 0 150 0 0 -86z"/>
</g>
</svg>
