<?xml version="1.0" standalone="no"?>
<!DOCTYPE svg PUBLIC "-//W3C//DTD SVG 20010904//EN"
 "http://www.w3.org/TR/2001/REC-SVG-20010904/DTD/svg10.dtd">
<svg version="1.0" xmlns="http://www.w3.org/2000/svg"
 width="225.000000pt" height="225.000000pt" viewBox="0 0 225.000000 225.000000"
 preserveAspectRatio="xMidYMid meet">
<metadata>
Created by potrace 1.15, written by Peter Selinger 2001-2017
</metadata>
<g transform="translate(0.000000,225.000000) scale(0.100000,-0.100000)"
fill="#000000" stroke="none">
<path d="M307 1919 c-108 -26 -200 -103 -251 -209 l-31 -65 0 -520 0 -520 31
-65 c40 -84 100 -144 182 -183 l67 -32 820 0 820 0 60 28 c79 37 156 114 192
191 l28 61 0 520 0 520 -28 61 c-36 77 -113 154 -192 191 l-60 28 -800 2
c-446 1 -817 -3 -838 -8z m924 -516 c325 -212 352 -235 318 -268 -25 -25 -641
-425 -655 -425 -7 0 -20 7 -28 16 -14 13 -16 66 -16 430 0 267 4 422 10 435 6
10 20 19 32 19 11 0 164 -93 339 -207z"/>
</g>
</svg>
